Coordinates
version=1
nRows=5
nColumns=42
inDegrees=yes

Units are S.I. units (second, meters, Newtons, ...)
If the header above contains a line with 'inDegrees', this indicates whether rotational values are in degrees (yes) or radians (no).

endheader
time	pelvis_tilt	pelvis_list	pelvis_rotation	pelvis_tx	pelvis_ty	pelvis_tz	hip_flexion_r	hip_adduction_r	hip_rotation_r	knee_angle_r	knee_adduction_r	knee_angle_r_beta	ankle_angle_r	subtalar_angle_r	mtp_angle_r	hip_flexion_l	hip_adduction_l	hip_rotation_l	knee_angle_l	knee_adduction_l	knee_angle_l_beta	ankle_angle_l	subtalar_angle_l	mtp_angle_l	lumbar_extension	lumbar_bending	lumbar_rotation	arm_flex_r	arm_add_r	arm_rot_r	elbow_flex_r	pro_sup_r	wrist_flex_r	wrist_dev_r	arm_flex_l	arm_add_l	arm_rot_l	elbow_flex_l	pro_sup_l	wrist_flex_l	wrist_dev_l
      2.05000000	      6.69707900	      6.54872234	     -3.07575335	     -0.49216015	      0.97900932	      0.31937923	    -17.67958158	     -9.95889199	    -23.95504326	     27.59761980	     -3.59617581	      0.48166933	      8.48652351	     17.45265362	     -7.59014573	      8.37292351	      6.98011563	    -15.69100050	      2.86361320	     -2.91190533	      0.04997948	     -8.91735765	     15.00559521	     -7.59014573	    -21.00884627	    -12.64126731	      4.38905490	     24.55772474	    -17.48372160	     25.39740007	     39.24611950	     90.00000001	      0.00000000	      0.00000000	    -13.31957568	    -12.56638120	      4.88988517	     37.50884607	     90.00000001	      0.00000000	      0.00000000
      2.06000000	      6.74216787	      6.67434191	     -2.99273584	     -0.48285116	      0.98075923	      0.31731524	    -17.02801192	    -10.69712890	    -24.29268519	     29.85731657	     -3.76463972	      0.52110848	      6.18977369	     16.57615458	     -7.58835169	      7.62342502	      7.29916754	    -15.89597851	      2.65084201	     -2.85738549	      0.04626592	     -8.43613523	     15.58706948	     -7.58835169	    -21.07317412	    -12.80382594	      4.13000050	     23.80849766	    -17.39210855	     25.23939421	     39.22503490	     90.00000001	      0.00000000	      0.00000000	    -12.80102503	    -12.82654781	      5.30486638	     37.33297980	     90.00000001	      0.00000000	      0.00000000
      2.07000000	      6.77657647	      6.78098681	     -2.87326346	     -0.47381214	      0.98247270	      0.31512630	    -16.23960471	    -11.45953216	    -24.59938605	     32.29152030	     -3.90018745	      0.56359335	      3.84946581	     15.39086419	     -7.58654202	      6.92353365	      7.61312410	    -15.97700441	      2.49758076	     -2.83313708	      0.04359101	     -7.94197458	     16.14646631	     -7.58654202	    -21.17415389	    -12.91977740	      3.83848187	     23.06193282	    -17.33288579	     25.05221981	     39.21107768	     90.00000001	      0.00000000	      0.00000000	    -12.20698271	    -13.10303375	      5.77989142	     37.22126909	     90.00000001	      0.00000000	      0.00000000
      2.08000000	      6.87566533	      6.84853329	     -2.77030889	     -0.46495142	      0.98423248	      0.31308011	    -15.37829547	    -12.16570632	    -24.90254569	     34.84559136	     -4.17128453	      0.60817030	      1.37301424	     14.04245336	     -7.58507702	      6.13695730	      7.87241560	    -15.95650791	      2.32065315	     -2.76927103	      0.04050304	     -7.33495685	     16.61227830	     -7.58507702	    -21.35514137	    -12.99667759	      3.57116655	     22.32622160	    -17.26192398	     24.90929165	     39.17790951	     90.00000001	      0.00000000	      0.00000000	    -11.55653215	    -13.38836152	      6.21072776	     37.13128864	     90.00000001	      0.00000000	      0.00000000
      2.09000000	      6.83424547	      6.92472623	     -2.52633435	     -0.45647813	      0.98568506	      0.31065960	    -14.26213478	    -12.92123574	    -24.99160275	     37.63553631	     -4.22335758	      0.65686402	     -1.12364016	     11.91411703	     -7.58295909	      5.62697117	      8.22047493	    -15.85682369	      2.29704177	     -2.89361088	      0.04009094	     -6.87821577	     17.09023315	     -7.58295909	    -21.45322777	    -13.01634938	      3.18002507	     21.56757181	    -17.20671399	     24.65294657	     39.20767695	     90.00000001	      0.00000000	      0.00000000	    -10.86044425	    -13.75041207	      6.92568916	     37.09418399	     90.00000001	      0.00000000	      0.00000000
